<?xml version="1.0" standalone="no"?>
<!DOCTYPE svg PUBLIC "-//W3C//DTD SVG 20010904//EN"
 "http://www.w3.org/TR/2001/REC-SVG-20010904/DTD/svg10.dtd">
<svg version="1.0" xmlns="http://www.w3.org/2000/svg"
 width="652.000000pt" height="668.000000pt" viewBox="0 0 652.000000 668.000000"
 preserveAspectRatio="xMidYMid meet">

<g transform="translate(0.000000,668.000000) scale(0.100000,-0.100000)"
fill="#000000" stroke="none">
<path d="M140 5845 l0 -635 620 0 620 0 0 635 0 635 -620 0 -620 0 0 -635z
m1060 0 l0 -455 -440 0 -440 0 0 455 0 455 440 0 440 0 0 -455z"/>
<path d="M490 5845 l0 -275 270 0 270 0 -2 273 -3 272 -267 3 -268 2 0 -275z"/>
<path d="M1560 6205 l0 -275 265 0 265 0 0 -185 0 -185 -89 0 -88 0 5 -90 5
-90 -92 0 -91 0 0 90 0 90 -90 0 -90 0 0 -360 0 -360 -90 0 -89 0 -3 91 -3 90
-88 2 -87 2 0 -92 0 -93 -90 0 -90 0 0 93 0 92 -265 -3 -265 -3 0 -89 0 -90
-175 0 -175 0 0 -90 0 -90 91 0 91 0 -3 -92 -3 -93 87 -3 87 -3 0 -89 0 -90
90 0 90 0 0 -185 0 -185 -90 0 -89 0 -3 93 -3 92 -83 -2 -82 -1 0 94 0 94 -90
0 -90 0 0 -280 0 -279 87 -3 88 -3 3 -97 3 -98 -90 0 -91 0 0 -195 0 -195 90
0 90 0 0 -190 0 -190 85 0 84 0 3 -97 3 -98 75 -2 c41 -1 81 -2 88 -2 10 -1
12 -43 10 -193 l-3 -193 -87 -3 -88 -3 0 196 0 195 -85 0 -85 0 -2 -82 c0 -46
-1 -90 -2 -98 -1 -12 -19 -16 -88 -18 l-88 -3 0 -374 0 -375 90 0 90 0 0 280
0 280 85 0 85 0 0 -280 0 -280 175 0 175 0 0 90 0 90 90 0 90 0 0 -90 0 -90
262 -2 262 -3 0 -90 1 -90 82 -3 82 -3 3 -92 3 -92 85 0 85 0 0 95 0 95 -82
-4 -83 -3 0 96 0 96 -85 0 c-61 0 -85 4 -86 13 0 6 -2 89 -2 182 l-2 170 -87
3 -88 3 0 94 0 95 85 0 85 0 0 -64 c0 -35 3 -77 6 -94 l6 -31 82 -3 81 -3 3
-92 3 -93 84 0 85 0 0 -90 0 -89 83 -3 82 -3 3 -92 3 -93 84 0 85 0 0 -90 0
-89 -36 -7 c-19 -3 -57 -4 -84 -2 l-49 5 -3 -91 -3 -91 -252 -3 -253 -2 0
-148 c0 -81 -3 -204 -7 -274 l-6 -128 174 -2 174 -3 3 -92 3 -93 -91 0 -90 0
0 -90 0 -90 90 0 90 0 0 90 0 90 85 0 85 0 0 -90 0 -90 85 0 85 0 0 185 0 185
170 0 170 0 0 -80 c0 -64 3 -80 15 -80 21 0 19 -16 -5 -40 -24 -24 -50 -26
-50 -5 0 12 -14 15 -65 15 l-65 0 0 -90 0 -90 85 0 85 0 0 75 c0 60 3 75 15
75 8 0 15 7 15 15 0 13 24 15 155 15 l155 0 0 -90 0 -90 339 0 c390 0 354 -12
344 111 l-6 69 171 0 171 0 3 93 3 92 83 3 82 3 0 -96 0 -95 85 0 85 0 0 -90
0 -90 91 0 91 0 -7 365 -8 365 87 0 86 0 0 95 0 95 85 0 85 0 0 -95 0 -95 175
0 175 0 0 -90 0 -90 90 0 90 0 0 90 0 90 85 0 85 0 0 -90 0 -90 90 0 90 0 0
-90 0 -90 -175 0 -175 0 0 -95 0 -95 -69 0 c-52 0 -70 4 -75 15 -3 8 -12 15
-21 15 -12 0 -15 15 -15 80 l0 80 -175 0 -175 0 0 90 0 90 -85 0 -85 0 2 -182
3 -183 83 -3 82 -3 0 -89 0 -90 90 0 90 0 0 90 0 90 64 0 c48 0 65 4 70 15 3
8 10 15 16 15 6 0 4 -7 -4 -16 -21 -21 -20 -35 4 -41 18 -5 20 -14 20 -79 l0
-74 90 0 90 0 0 90 0 90 175 0 175 0 0 -90 0 -90 90 0 90 0 0 185 0 185 85 0
85 0 0 -185 0 -185 175 0 175 0 0 90 0 89 -86 3 -86 3 0 90 0 90 86 3 86 3 0
89 0 90 -85 0 -85 0 0 275 0 274 83 3 82 3 3 98 3 99 -43 -2 c-24 -2 -141 -2
-260 -1 l-218 1 0 275 0 275 -90 0 -90 0 0 190 0 190 90 0 90 0 0 -95 0 -94
83 -3 82 -3 3 -92 3 -93 84 0 85 0 0 -90 0 -90 -85 0 -85 0 0 -95 0 -95 91 0
90 0 -3 90 -3 90 88 0 87 0 0 190 0 190 -85 0 -85 0 0 95 0 95 85 0 85 0 0
200 0 200 -90 0 -90 0 0 -100 0 -100 -85 0 -84 0 -3 -97 -3 -98 -82 -3 -83 -3
0 101 0 100 -90 0 -90 0 0 -100 0 -100 -90 0 -90 0 0 100 0 100 -85 0 -85 0 0
100 0 100 85 0 85 0 0 95 0 95 90 0 90 0 0 -95 0 -95 175 0 176 0 -3 96 -3 97
-172 -2 -173 -2 0 98 0 98 -87 0 -88 0 0 100 0 100 165 2 c91 1 171 2 178 2 9
1 12 26 12 91 l0 90 173 2 172 3 3 98 3 97 -176 0 -175 0 0 95 0 95 85 0 85 0
0 95 0 95 -85 0 -85 0 0 90 0 90 -90 0 -90 0 0 -185 0 -185 -90 0 -90 0 0 95
0 95 -90 0 -91 0 3 88 3 87 88 3 87 3 0 89 0 90 90 0 90 0 0 95 0 96 88 -3 87
-3 1 -90 0 -90 87 -3 87 -3 0 -89 0 -90 175 0 175 0 0 364 0 364 -32 5 c-18 3
-135 6 -260 7 -183 1 -228 -1 -229 -12 0 -7 0 -50 1 -95 l1 -83 -90 0 -91 0 0
-90 0 -90 -90 0 -90 0 0 179 0 178 -95 7 c-51 4 -143 4 -203 0 -60 -4 -139 -3
-175 0 l-67 8 0 359 0 359 -180 0 -180 0 0 90 0 90 90 0 90 0 0 95 0 95 90 0
90 0 0 180 0 180 -90 0 c-103 0 -93 12 -90 -112 l1 -68 -90 0 -91 0 0 -90 0
-90 -175 0 -175 0 0 90 0 90 85 0 85 0 0 90 0 91 -87 -3 -88 -3 -3 -87 -3 -88
-172 -2 -172 -3 -3 -87 -3 -88 -90 0 -90 0 3 88 3 87 88 3 87 3 0 89 0 90
-175 0 -175 0 0 -275 0 -275 -90 0 -90 0 -2 183 -3 182 -177 3 -178 2 0 90 0
90 -90 0 -90 0 0 -90 0 -90 -90 0 -90 0 0 90 0 90 -85 0 -85 0 0 -90 0 -90
-157 0 c-87 0 -168 -3 -180 -6 -20 -6 -22 -13 -25 -93 l-3 -86 -82 -3 -83 -3
0 80 c0 44 -3 86 -6 95 -5 14 6 16 85 16 l91 0 0 90 0 90 -84 0 c-60 0 -85 -4
-89 -13 -3 -7 -5 -47 -5 -88 l0 -74 -86 -3 -86 -3 0 91 0 90 -90 0 -90 0 0
-275z m1060 5 l0 -90 -85 0 -85 0 0 90 0 90 85 0 85 0 0 -90z m362 -1 l3 -91
85 -2 85 -1 3 -92 3 -93 -91 0 -90 0 0 -185 0 -185 90 0 90 0 0 95 0 95 90 0
90 0 0 -95 0 -95 90 0 90 0 0 185 0 185 85 0 85 0 0 -185 0 -185 -85 0 -85 0
0 -90 0 -90 -90 0 -90 0 0 90 0 90 -90 0 -90 0 0 -90 0 -90 -90 0 -90 0 0 90
0 90 -90 0 -90 0 0 -185 0 -185 -91 0 -92 0 7 118 c4 65 4 148 0 185 l-7 67
-173 0 -174 0 0 -89 0 -88 46 -7 c26 -3 67 -6 91 -6 l44 0 -3 -87 -3 -88 -87
-3 -88 -3 0 96 0 95 -90 0 -90 0 0 90 0 90 90 0 90 0 0 95 0 95 90 0 90 0 0
90 0 89 86 3 86 3 2 90 1 90 88 3 87 3 0 -96 0 -95 90 0 90 0 0 96 0 96 -87
-3 -88 -3 -3 92 -3 92 90 0 90 0 3 -91z m-712 -184 l0 -95 -90 0 -90 0 0 93 0
92 90 2 90 3 0 -95z m2130 -185 l0 -89 -87 -3 -88 -3 -3 -92 -3 -93 -174 0
-175 0 0 -185 0 -185 -90 0 -90 0 0 163 c0 89 3 172 6 185 6 21 12 22 90 22
l84 0 0 185 0 185 265 0 265 0 0 -90z m0 -465 l0 -185 -85 0 -85 0 0 185 0
185 85 0 85 0 0 -185z m360 95 l0 -90 -90 0 -90 0 0 90 0 90 90 0 90 0 0 -90z
m-80 -236 c-5 -21 -15 -41 -22 -45 -8 -5 -8 -9 -2 -9 7 0 9 -11 6 -25 -2 -14
-9 -25 -14 -25 -5 0 -7 -4 -3 -10 8 -13 -36 -117 -77 -182 -52 -81 -151 -181
-237 -242 -42 -29 -173 -103 -291 -163 -118 -60 -246 -129 -283 -152 -38 -23
-72 -39 -78 -35 -5 3 -8 1 -7 -4 2 -5 -31 -36 -72 -69 -92 -73 -211 -198 -265
-277 -49 -71 -55 -56 -21 48 56 167 148 309 290 452 134 133 248 209 495 330
118 57 251 129 296 158 99 64 214 171 257 237 17 27 32 49 34 49 1 0 -2 -16
-6 -36z m-2734 -125 c98 -93 192 -152 404 -257 250 -123 284 -143 406 -234
111 -82 225 -201 298 -311 114 -172 218 -470 111 -316 -152 215 -326 349 -695
534 -96 48 -211 111 -256 140 -177 115 -309 274 -359 434 -6 21 -5 22 8 10 8
-8 14 -16 12 -19 -2 -3 3 -18 11 -35 l14 -30 -5 30 -5 30 15 -25 c8 -14 14
-19 15 -12 0 7 -11 28 -25 46 -14 18 -25 39 -25 47 0 8 -11 32 -25 54 -36 59
-30 63 14 8 21 -26 61 -69 87 -94z m-99 29 c-3 -8 -6 -5 -6 6 -1 11 2 17 5 13
3 -3 4 -12 1 -19z m1688 -63 c50 -9 126 -25 170 -36 95 -24 327 -118 320 -129
-5 -9 -92 -51 -203 -99 -257 -112 -436 -284 -536 -515 l-34 -78 -35 75 c-81
174 -201 317 -349 414 -43 27 -150 83 -238 124 -88 40 -160 76 -160 80 0 8
101 53 199 89 90 33 274 75 386 89 109 13 370 6 480 -14z m-2515 -325 l0 -90
-90 0 -90 0 0 -95 0 -95 90 0 90 0 0 -90 0 -90 90 0 90 0 0 90 0 90 84 0 85 0
3 -86 c2 -47 1 -88 -1 -90 -2 -2 -42 -4 -88 -4 l-83 0 0 -95 0 -95 175 0 175
0 0 -185 0 -185 -67 0 c-122 0 -112 16 -115 -199 l-3 -186 -173 -3 -173 -2 3
96 3 97 88 -2 87 -2 0 100 0 101 85 0 85 0 0 95 0 95 -175 0 -175 0 0 -97 0
-98 -172 0 -173 0 -3 -97 -3 -98 86 0 85 0 0 -90 0 -90 74 0 c110 0 106 4 106
-111 l0 -100 -87 3 -88 3 -3 98 -3 97 -84 0 -85 0 0 95 0 95 -90 0 -90 0 0
-190 0 -190 -85 0 -85 0 0 190 0 190 85 0 85 0 0 95 0 95 -39 0 c-21 0 -59 3
-85 6 l-46 7 0 93 0 94 85 0 85 0 0 -95 0 -95 90 0 90 0 0 95 0 95 175 0 175
0 0 185 0 185 -175 0 -175 0 0 90 0 90 -90 0 -90 0 0 185 0 185 265 0 265 0 0
-90z m350 0 l0 -90 -85 0 -85 0 0 90 0 90 85 0 85 0 0 -90z m360 0 l0 -90 -85
0 -85 0 0 90 0 90 85 0 85 0 0 -90z m3570 0 l0 -89 -86 -3 -86 -3 -2 -180 -1
-180 -87 -3 -88 -3 0 186 0 185 -95 0 -95 0 0 90 0 90 270 0 270 0 0 -90z
m880 0 l0 -90 -85 0 -85 0 0 90 0 90 85 0 85 0 0 -90z m-4628 -182 l3 -93 88
-3 87 -3 0 -89 0 -90 -91 0 -91 0 3 88 3 87 -85 3 -86 3 -7 52 c-8 68 -8 122
1 130 3 4 44 7 89 7 l83 0 3 -92z m535 46 l33 -25 -36 -42 c-48 -57 -119 -206
-138 -294 -20 -90 -20 -216 -1 -308 8 -38 35 -113 61 -165 39 -81 58 -107 132
-180 61 -60 106 -94 152 -116 125 -60 164 -69 300 -68 108 0 136 4 205 27 44
14 107 42 139 62 32 19 60 34 62 33 1 -2 4 -19 6 -38 3 -32 -1 -37 -52 -72
-121 -82 -314 -127 -462 -108 -92 11 -203 49 -276 93 -118 71 -242 208 -298
331 -14 32 -28 55 -31 53 -9 -10 19 -212 33 -240 26 -49 163 -185 230 -227 89
-56 261 -120 324 -120 17 0 68 -83 105 -170 48 -115 59 -176 59 -330 0 -172
-14 -240 -99 -471 -127 -346 -148 -445 -127 -595 9 -68 8 -82 -6 -111 l-17
-33 -80 63 c-412 327 -635 780 -637 1292 -1 203 22 345 93 561 l39 121 -8 179
c-5 98 -5 224 -1 279 14 209 88 422 198 573 29 40 55 72 58 72 4 0 21 -12 40
-26z m2423 -51 c0 -6 6 -14 13 -16 8 -4 8 -6 0 -6 -6 -1 -22 16 -34 37 -40 63
-42 68 -10 32 17 -19 31 -40 31 -47z m-21 -17 c13 -14 29 -22 36 -20 27 11
106 -164 153 -335 26 -93 26 -106 28 -391 l1 -295 41 -122 c145 -434 108 -899
-102 -1289 -66 -124 -116 -195 -214 -307 -70 -80 -189 -190 -282 -259 l-35
-27 -18 38 c-16 32 -17 44 -8 77 16 59 13 178 -8 279 -10 50 -50 173 -89 275
-134 354 -158 534 -102 756 21 83 84 224 116 260 12 14 44 27 89 37 154 33
263 93 378 205 112 109 127 136 138 253 6 55 9 104 7 110 -2 6 -23 -27 -46
-74 -84 -169 -238 -302 -428 -367 -193 -67 -424 -33 -606 88 -33 21 -38 30
-38 63 0 22 2 39 4 39 3 0 31 -16 63 -35 180 -109 439 -124 621 -34 236 116
382 353 382 624 0 152 -40 287 -119 406 -23 34 -34 59 -26 55 8 -3 17 -1 20 4
9 15 20 12 44 -14z m-2204 -43 c64 -43 95 -69 95 -81 0 -5 -8 -16 -18 -25 -17
-16 -22 -12 -90 62 -40 44 -72 82 -72 85 0 10 34 -7 85 -41z m1992 17 c-22
-32 -118 -130 -126 -130 -5 0 -14 7 -21 15 -17 20 5 45 85 96 67 43 83 48 62
19z m-2061 -131 c52 -28 94 -54 94 -58 0 -4 -6 -15 -13 -26 -13 -17 -19 -14
-110 40 -85 50 -95 59 -86 76 5 10 12 19 16 19 3 0 48 -23 99 -51z m2184 36
c7 -9 11 -17 9 -19 -2 -2 -46 -29 -98 -61 -89 -55 -95 -57 -108 -40 -7 11 -13
22 -13 25 0 6 178 108 191 109 4 1 12 -6 19 -14z m-1765 -105 c5 -9 -21 -14
-62 -13 -7 1 -10 -3 -7 -8 3 -5 -6 -13 -20 -19 -36 -13 -32 -16 15 -12 32 3
46 -1 65 -19 34 -31 33 -81 -2 -108 -50 -39 -96 -22 -118 42 l-13 38 -12 -42
c-28 -93 19 -208 101 -248 137 -66 298 38 298 194 l0 29 55 -54 c31 -31 55
-63 55 -75 0 -69 -97 -186 -188 -228 -69 -32 -219 -31 -280 2 -228 119 -266
429 -71 571 l41 29 68 -34 c38 -19 71 -39 75 -45z m1441 25 c67 -69 87 -116
92 -215 5 -109 -18 -177 -89 -254 -69 -76 -129 -101 -244 -101 -78 0 -97 4
-146 28 -88 43 -178 155 -179 222 0 12 20 41 45 65 25 24 45 39 45 33 0 -6 -7
-14 -16 -17 -8 -3 -12 -10 -9 -16 3 -5 1 -10 -4 -10 -6 0 -11 -7 -11 -15 0 -8
-6 -14 -12 -13 -15 3 -14 -1 5 -55 20 -55 35 -66 42 -31 3 16 11 46 17 67 l11
38 13 -29 c51 -123 203 -169 307 -95 96 70 115 215 40 304 -24 28 -25 31 -6
21 30 -16 59 -15 77 3 16 16 11 49 -5 39 -5 -3 -9 -2 -8 3 4 21 -3 32 -23 39
-32 11 -40 11 -66 0 -21 -9 -21 -10 -5 -29 10 -11 13 -17 6 -14 -6 4 -14 3
-17 -2 -4 -6 -18 -5 -36 2 l-30 12 62 32 c35 18 72 32 82 33 11 0 39 -20 62
-45z m-1833 -112 c17 -5 24 -47 10 -56 -13 -8 -216 58 -221 71 -2 7 -1 19 2
27 5 13 53 3 209 -42z m2225 22 c-2 -13 -31 -25 -103 -46 -106 -31 -125 -31
-125 -1 0 16 19 25 108 49 107 30 127 30 120 -2z m-683 -20 c46 -45 19 -118
-43 -118 -69 0 -99 80 -46 122 35 27 59 26 89 -4z m-168 -137 c-2 -13 -4 -5
-4 17 -1 22 1 32 4 23 2 -10 2 -28 0 -40z m-1367 -8 l0 -30 -120 0 -120 0 0
25 c0 24 2 24 88 28 48 1 102 4 120 5 29 2 32 0 32 -28z m2240 -6 l0 -24 -120
0 c-119 0 -120 0 -120 23 0 13 2 26 4 28 2 2 56 3 120 1 115 -3 116 -3 116
-28z m810 -74 l0 -90 90 0 90 0 0 -95 0 -95 -90 0 -90 0 0 95 0 95 -85 0 -85
0 0 -95 0 -95 -90 0 -90 0 0 95 0 95 90 0 90 0 0 90 0 90 85 0 85 0 0 -90z
m-3027 -35 c5 -31 -1 -35 -112 -64 -46 -13 -90 -25 -97 -28 -8 -3 -18 5 -23
18 -8 23 -4 25 98 61 58 20 111 37 117 37 7 1 14 -10 17 -24z m2090 -14 c87
-29 97 -35 97 -57 0 -13 -2 -24 -5 -24 -13 0 -221 63 -226 69 -11 10 10 53 24
49 6 -3 56 -20 110 -37z m-2043 -86 c6 -8 10 -19 8 -24 -1 -6 -46 -38 -98 -71
-86 -54 -96 -58 -107 -43 -7 9 -13 19 -13 23 0 6 181 130 191 130 4 0 12 -7
19 -15z m784 -39 c24 -20 27 -26 17 -45 -7 -11 -14 -21 -16 -21 -4 0 -89 62
-103 75 -2 2 1 13 8 24 10 20 13 20 38 6 15 -8 40 -25 56 -39z m395 9 c-19
-17 -102 -76 -104 -73 -26 33 -22 43 28 80 50 37 50 37 65 17 8 -11 12 -22 11
-24z m794 -16 c51 -34 93 -63 95 -64 6 -5 -11 -35 -21 -35 -20 0 -197 111
-197 123 0 12 19 37 27 37 2 0 45 -28 96 -61z m-1889 -44 c17 -13 14 -19 -60
-99 -43 -48 -81 -86 -85 -86 -4 0 -12 7 -19 15 -14 17 -20 8 74 118 32 37 61
67 64 67 4 0 15 -7 26 -15z m596 -46 c33 -52 37 -64 27 -80 -6 -10 -14 -19
-17 -19 -8 0 -90 117 -90 128 0 10 21 32 32 32 5 0 26 -27 48 -61z m580 30 c0
-14 -82 -129 -92 -129 -4 0 -10 11 -14 24 -4 17 4 39 31 80 32 47 40 54 56 45
11 -5 19 -14 19 -20z m621 -55 c67 -79 71 -86 56 -102 -16 -15 -22 -10 -96 68
-73 79 -78 86 -63 103 8 9 19 17 23 17 4 0 40 -39 80 -86z m-872 -42 c39 -59
71 -118 71 -129 0 -56 -128 -383 -150 -383 -10 0 -87 170 -115 255 -46 137
-46 136 34 258 39 59 75 107 79 107 5 0 41 -49 81 -108z m-813 43 c3 -7 -16
-54 -41 -104 -34 -65 -52 -91 -65 -91 -31 0 -31 15 -4 76 15 33 35 78 45 101
15 34 21 41 39 36 12 -3 24 -11 26 -18z m375 -69 c18 -57 19 -70 8 -77 -22
-14 -30 -7 -54 54 -39 94 -39 96 -13 106 29 11 32 5 59 -83z m796 70 c6 -5
-56 -151 -65 -154 -5 -1 -14 3 -20 11 -9 10 -6 32 14 90 24 73 27 76 47 66 12
-7 23 -12 24 -13z m384 -62 c53 -116 56 -130 29 -137 -18 -5 -27 8 -71 95 -28
55 -49 101 -47 103 5 4 43 24 46 25 2 0 21 -39 43 -86z m1764 -24 l0 -95 -87
-3 -88 -3 0 101 0 101 88 -3 87 -3 0 -95z m-3202 50 c0 -8 -9 -54 -19 -102
-16 -81 -19 -88 -41 -88 -26 0 -26 2 -13 90 19 122 19 121 48 118 17 -2 26 -9
25 -18z m122 -42 c10 -94 4 -132 -21 -136 -19 -3 -21 4 -30 93 -5 53 -7 98 -5
101 2 2 14 4 27 4 20 0 23 -6 29 -62z m1046 57 c7 -6 -11 -179 -19 -187 -4 -4
-17 -5 -29 -2 -17 5 -21 12 -18 33 2 14 7 56 10 94 6 61 9 67 29 67 13 0 25
-2 27 -5z m119 3 c0 -2 9 -49 19 -105 18 -101 18 -103 0 -103 -11 0 -22 0 -26
0 -8 -1 -42 148 -43 188 0 17 6 22 25 22 14 0 25 -1 25 -2z m1210 -263 l0 -94
30 5 c16 4 54 3 85 -1 l55 -6 0 -94 0 -94 -122 -3 c-68 -2 -144 -1 -169 0
l-47 4 -6 45 c-3 25 -6 110 -6 189 l0 143 83 3 c45 2 85 2 90 0 4 -2 7 -46 7
-97z m350 0 l0 -95 -82 3 c-96 4 -95 3 -97 120 l-1 67 90 0 90 0 0 -95z
m-2430 -85 c0 -42 184 -384 203 -377 6 2 35 45 65 95 30 51 57 90 60 87 3 -2
-1 -11 -8 -20 -10 -12 -10 -15 3 -15 8 0 18 6 20 13 3 6 6 -5 6 -25 1 -20 -3
-40 -9 -43 -17 -10 -11 -36 8 -34 37 3 44 0 30 -15 -9 -10 -15 -11 -20 -2 -5
7 -8 5 -8 -6 0 -12 -6 -16 -20 -13 -11 2 -18 0 -15 -5 3 -4 -6 -22 -21 -39
-14 -17 -23 -35 -20 -40 4 -5 -2 -17 -11 -27 -10 -9 -13 -15 -6 -13 6 2 29 28
52 56 77 98 255 226 381 274 39 15 64 18 106 13 69 -9 63 -15 -66 -74 -116
-52 -174 -89 -263 -165 -54 -46 -66 -62 -62 -79 5 -15 4 -17 -3 -8 -7 11 -17
5 -41 -25 -17 -21 -29 -44 -26 -51 3 -7 0 -10 -5 -7 -18 11 -120 -223 -120
-277 0 -10 -4 -18 -10 -18 -5 0 -10 7 -10 15 0 8 -10 44 -22 80 -15 46 -26 65
-37 64 -29 -3 -41 1 -41 12 0 12 -25 39 -37 41 -18 2 -40 13 -68 34 -16 12
-40 25 -53 29 l-23 7 17 -39 c9 -21 30 -78 46 -128 39 -117 50 -140 98 -200
40 -50 110 -177 123 -225 7 -23 9 -21 26 25 30 82 78 163 151 255 11 14 29 59
40 100 33 120 100 248 167 317 47 49 159 133 176 133 3 0 0 -18 -5 -39 -7 -29
-21 -47 -53 -70 -62 -45 -120 -118 -159 -202 -58 -125 -58 -129 10 -77 71 53
150 108 158 108 3 0 6 -17 6 -38 0 -35 -4 -41 -73 -90 -83 -59 -210 -184 -263
-257 -47 -65 -99 -175 -119 -250 -14 -53 -34 -266 -35 -380 -1 -37 -2 -39 -15
-21 -16 21 -19 18 -9 -8 12 -32 34 -14 74 63 24 47 75 117 126 175 47 53 93
116 103 139 30 70 51 181 51 270 0 79 2 86 25 101 13 9 27 16 31 16 12 0 -5
-252 -20 -307 -8 -29 -12 -53 -10 -53 6 0 62 49 141 124 35 33 65 57 67 55 3
-2 7 -15 11 -29 5 -22 -3 -35 -61 -90 l-67 -65 -18 -95 c-29 -157 -81 -279
-158 -373 -43 -51 -101 -103 -101 -90 0 4 -7 -1 -15 -11 -8 -11 -15 -17 -15
-14 0 4 25 40 55 80 30 40 73 109 95 153 38 76 97 271 86 282 -10 11 -159
-134 -212 -206 -30 -41 -71 -108 -90 -150 -36 -75 -84 -240 -84 -290 0 -20 -2
-23 -10 -11 -5 8 -10 25 -10 36 0 39 -50 197 -85 272 -46 97 -126 201 -224
290 -45 40 -81 69 -81 65 0 -5 11 -50 24 -101 25 -95 66 -193 117 -275 16 -26
26 -53 23 -59 -4 -6 -3 -8 3 -5 14 9 37 -19 27 -34 -4 -7 -3 -9 3 -6 6 4 21
-5 33 -18 31 -33 18 -32 -26 1 -18 14 -31 31 -27 37 3 5 1 7 -4 4 -11 -7 -82
64 -102 101 -6 11 -8 29 -5 39 4 13 3 14 -3 5 -22 -30 -101 183 -119 321 -7
48 -12 57 -76 116 -61 56 -69 67 -63 90 4 14 8 28 10 30 2 2 49 -38 103 -88
100 -92 120 -106 107 -73 -25 63 -43 283 -27 325 7 15 10 16 28 3 18 -13 22
-28 27 -128 4 -82 13 -136 32 -196 24 -75 33 -91 118 -186 55 -62 109 -135
134 -182 l43 -79 0 110 c0 249 -44 415 -151 571 -42 62 -165 182 -250 246 -68
51 -77 62 -81 95 -3 21 -4 40 -2 42 5 5 77 -42 152 -101 34 -26 62 -43 62 -36
0 7 -20 54 -45 105 -33 67 -62 110 -101 148 -30 30 -60 55 -66 55 -7 0 -7 -4
1 -14 8 -9 8 -21 2 -37 l-10 -24 0 24 c-1 34 -57 195 -96 274 -32 65 -32 67
-11 67 82 1 260 60 347 115 58 37 69 41 69 25z m448 -16 c2 -1 -8 -1 -22 0
-26 1 -32 7 -19 19 3 4 13 1 22 -5 9 -7 17 -13 19 -14z m-1954 7 c3 -5 3 -52
-1 -105 l-6 -96 -68 0 c-102 0 -99 -3 -99 111 l0 99 84 0 c47 0 87 -4 90 -9z
m-874 -296 l0 -95 85 0 85 0 0 -95 0 -95 90 0 90 0 0 95 0 95 90 0 90 0 0 95
0 95 85 0 85 0 0 -95 0 -95 -85 0 -85 0 0 -95 0 -95 85 0 85 0 0 -94 0 -94 30
-7 c16 -4 51 -6 77 -5 69 3 69 3 67 -27 -1 -16 -2 -60 -3 -98 l-1 -70 -82 0
-83 0 -3 -97 -3 -98 -84 0 -85 0 0 -95 0 -95 85 0 85 0 0 -90 0 -90 -175 0
-175 0 0 90 0 90 -90 0 -90 0 0 -95 0 -95 -85 0 -85 0 0 190 0 191 173 -2 172
-1 3 96 3 95 -88 3 -88 3 -3 198 -2 197 -175 0 -175 0 0 190 0 190 90 0 90 0
0 -95z m2720 -65 c0 -5 -5 -10 -11 -10 -5 0 -7 5 -4 10 3 6 8 10 11 10 2 0 4
-4 4 -10z m1910 -125 l0 -95 -85 0 -85 0 0 95 0 95 85 0 85 0 0 -95z m-2476
-45 c-6 -6 -10 -3 -10 10 0 13 4 16 10 10 7 -7 7 -13 0 -20z m-67 -37 c-3 -10
-5 -4 -5 12 0 17 2 24 5 18 2 -7 2 -21 0 -30z m3 -330 c0 -85 -2 -94 -16 -83
-32 27 -36 48 -23 125 10 59 15 72 26 63 9 -7 13 -39 13 -105z m2542 20 c3
-98 3 -98 28 -96 14 1 53 0 88 -3 l62 -6 0 -189 0 -189 -84 0 c-98 0 -96 2
-96 -106 l0 -74 -85 0 -85 0 0 90 0 89 -87 3 -88 3 0 90 0 90 88 3 87 3 0 94
0 95 -85 0 -85 0 0 100 0 100 170 0 169 0 3 -97z m-1522 8 c11 -67 11 -71 -12
-101 l-23 -32 -3 93 c-1 51 0 99 3 106 10 27 23 2 35 -66z m-753 -198 c37 -61
70 -144 87 -217 7 -31 12 -56 11 -56 -13 0 -88 112 -103 153 -17 46 -36 167
-27 167 2 0 16 -21 32 -47z m474 -33 c-7 -40 -23 -96 -36 -124 -27 -57 -85
-121 -85 -94 0 61 109 313 127 294 3 -2 0 -37 -6 -76z m-810 -336 c16 -39 45
-97 64 -129 19 -31 32 -62 28 -68 -3 -5 -1 -7 4 -4 6 4 23 -9 37 -28 20 -25
23 -35 12 -35 -23 0 -76 49 -69 66 7 19 -16 46 -34 40 -32 -12 -162 274 -147
322 26 79 26 79 51 -9 13 -45 37 -115 54 -155z m1218 184 c11 -39 10 -51 -14
-118 -36 -101 -98 -216 -141 -265 -20 -22 -33 -35 -30 -29 3 6 -1 11 -9 11 -8
0 -12 -4 -9 -9 9 -14 -16 -38 -38 -38 -17 0 -15 6 15 43 70 84 166 291 189
402 6 30 14 53 18 50 4 -2 13 -24 19 -47z m1751 -198 l0 -90 -90 0 -90 0 0 83
c0 46 3 87 7 90 3 4 44 7 90 7 l83 0 0 -90z m-1675 -122 c-6 -5 -6 -8 3 -8 12
0 17 -32 6 -43 -9 -9 -35 4 -28 14 3 5 1 9 -3 9 -11 0 -38 -43 -35 -54 2 -5
-3 -4 -11 2 -16 14 -28 6 -21 -13 6 -15 -12 -29 -26 -20 -6 4 7 26 31 53 23
26 51 64 63 84 l21 38 5 -28 c3 -15 1 -30 -5 -34z m-1388 -54 c40 -50 42 -54
24 -64 -30 -16 -45 -12 -74 18 -20 21 -24 31 -16 39 6 6 8 17 3 24 -5 9 -9 8
-15 -7 -6 -16 -8 -15 -8 9 -1 15 5 27 12 28 10 0 10 2 0 6 -7 2 -13 17 -12 31
l0 27 22 -29 c12 -16 41 -53 64 -82z m2183 -103 l0 -179 -102 -7 c-81 -5 -174
-4 -236 5 -1 0 -1 39 0 88 l3 87 85 3 85 3 -3 89 -4 90 86 0 86 0 0 -179z
m-810 85 c0 -17 -48 -61 -57 -52 -5 4 1 14 11 22 11 7 17 17 13 20 -9 10 13
35 24 28 5 -3 9 -11 9 -18z m1510 -366 l0 -280 -260 0 -260 0 0 280 0 280 260
0 260 0 0 -280z m-2717 232 c15 -17 15 -25 2 -88 -8 -38 -15 -90 -15 -116 0
-25 -5 -69 -12 -97 -9 -42 -14 -49 -25 -39 -43 36 -81 179 -69 261 13 84 76
126 119 79z m1049 7 c64 -34 62 -202 -3 -319 l-24 -42 -12 29 c-6 16 -17 75
-23 130 -6 55 -15 116 -20 134 -17 60 27 97 82 68z m-878 -41 c9 -12 16 -36
16 -53 0 -30 -56 -213 -70 -228 -4 -4 -18 16 -30 45 -31 69 -34 190 -7 231 22
35 69 37 91 5z m715 3 c25 -25 35 -78 28 -146 -6 -62 -43 -153 -56 -139 -8 9
-52 155 -66 222 -14 66 49 108 94 63z m-1072 1 c8 -5 9 -21 2 -57 -5 -28 -7
-84 -4 -125 6 -76 -2 -128 -20 -131 -17 -4 -65 84 -77 141 -13 65 -5 118 23
154 20 25 52 33 76 18z m1421 -15 c46 -49 36 -175 -20 -263 -30 -48 -31 -49
-40 -24 -5 14 -11 89 -13 168 l-3 142 27 0 c16 0 37 -10 49 -23z m-531 -122
c-4 -8 -10 -15 -14 -14 -33 6 -45 -14 -16 -25 11 -5 22 -1 30 10 12 16 13 16
13 -7 0 -20 -16 -35 -82 -79 -140 -91 -144 -93 -169 -80 -18 10 -177 113 -202
131 -11 8 2 79 14 79 11 0 149 -88 149 -95 0 -3 -9 -1 -20 5 -14 7 -20 7 -20
0 0 -5 -9 -10 -20 -10 -11 0 -20 -4 -20 -10 0 -5 4 -10 9 -10 5 0 17 -3 25 -6
12 -5 15 -2 10 10 -5 12 1 15 26 13 30 -2 30 -2 11 -18 -20 -16 -20 -16 4 -29
13 -7 22 -16 20 -20 -3 -4 4 -10 15 -13 11 -3 23 -1 26 4 3 5 14 9 25 9 25 0
25 29 -1 38 -17 6 -11 13 43 48 34 22 78 49 97 60 19 10 37 23 39 27 6 15 14
-2 8 -18z m975 -67 l3 -93 83 -3 82 -3 0 -90 0 -89 -167 2 -168 3 -3 183 -2
182 84 0 85 0 3 -92z m1397 5 c1 -49 5 -90 8 -93 2 -3 40 -7 84 -9 l80 -3 -3
-87 -3 -86 -81 -3 -82 -3 -7 -35 c-3 -20 -3 -60 1 -90 l6 -54 -91 0 -91 0 0
90 0 90 90 0 90 0 0 95 0 95 -90 0 -90 0 0 90 0 90 88 0 88 0 3 -87z m-2226
-285 c47 -95 110 -210 141 -256 34 -51 56 -94 56 -111 0 -36 -26 -134 -50
-189 l-20 -43 -52 28 c-29 15 -77 53 -108 83 -55 53 -57 58 -88 170 -37 137
-72 292 -72 320 0 14 4 19 12 14 7 -4 8 -3 4 5 -4 6 -12 9 -17 6 -5 -4 -9 0
-9 8 0 8 -3 29 -6 46 -6 26 -4 31 14 31 17 0 24 -15 47 -112 15 -62 47 -174
71 -248 41 -124 48 -138 90 -177 64 -60 78 -57 96 19 l15 62 -42 70 c-46 76
-140 275 -172 366 -17 49 -19 63 -14 86 4 17 27 -23 104 -178z m-603 163 c0
-6 -4 -13 -10 -16 -5 -3 -10 1 -10 9 0 9 5 16 10 16 6 0 10 -4 10 -9z m-41
-28 c-3 -20 2 -26 11 -13 19 29 10 -10 -16 -73 -53 -128 -109 -244 -151 -313
-24 -39 -43 -77 -43 -84 0 -34 33 -120 46 -120 8 0 35 19 59 41 42 38 49 52
85 168 21 69 49 165 61 213 13 49 27 84 32 81 6 -3 7 -1 3 5 -3 6 -4 29 0 51
6 36 8 39 26 28 24 -15 22 -37 -22 -235 -38 -170 -84 -320 -107 -348 -43 -50
-154 -124 -187 -124 -18 0 -53 89 -68 179 l-11 67 39 55 c53 71 80 120 164
289 62 124 83 158 79 133z m916 -75 c4 -21 10 -40 15 -43 4 -2 28 13 53 35 34
30 47 37 55 27 17 -22 128 -250 147 -304 10 -29 16 -55 12 -59 -3 -3 -44 -9
-91 -11 -118 -8 -165 7 -219 67 -41 45 -152 240 -128 226 14 -9 14 9 0 37 -11
20 -10 20 13 -3 14 -14 31 -36 38 -50 7 -14 32 -54 56 -90 53 -81 99 -110 174
-110 l52 0 -76 83 c-42 45 -74 87 -72 94 3 7 -1 10 -10 6 -17 -6 -18 8 -1 27
10 12 9 12 -5 2 -9 -7 -18 -9 -21 -5 -46 77 -48 83 -30 107 21 28 29 20 38
-36z m-1224 -7 c-7 -11 -16 -21 -22 -21 -6 0 -8 -4 -5 -9 8 -12 -38 -72 -125
-165 l-74 -79 62 5 c89 6 126 34 192 147 41 70 58 90 71 86 11 -4 20 3 29 21
6 15 10 29 7 31 -3 3 2 12 10 20 31 31 22 3 -35 -109 -79 -159 -128 -229 -177
-253 -42 -21 -167 -32 -230 -20 -34 6 -36 8 -30 38 5 25 146 326 163 346 6 8
53 -43 53 -58 0 -9 5 -23 11 -31 8 -12 9 -10 4 9 -5 17 -4 22 6 19 8 -3 13
-13 11 -23 -3 -16 -2 -17 12 -2 9 8 16 19 16 24 0 4 5 25 11 47 l11 39 20 -20
c16 -17 18 -24 9 -42z m1056 17 c-3 -8 -6 -5 -6 6 -1 11 2 17 5 13 3 -3 4 -12
1 -19z m-13 -14 c3 -8 2 -12 -4 -9 -6 3 -10 10 -10 16 0 14 7 11 14 -7z
m-1474 -143 c0 -50 -3 -91 -7 -93 -5 -2 -43 -2 -85 0 l-78 4 0 89 0 89 85 0
85 0 0 -89z m949 -89 c-6 -46 -8 -86 -4 -90 4 -4 10 -1 12 6 3 6 15 12 28 12
14 0 25 7 28 18 3 9 5 -43 6 -116 1 -93 5 -137 14 -145 6 -7 36 -12 65 -12 41
-1 52 3 52 15 0 9 -14 83 -30 164 -19 88 -28 156 -24 169 4 12 7 33 7 47 -1
14 5 -4 13 -40 23 -97 84 -300 100 -332 13 -24 12 -32 -1 -65 -27 -65 -102
-176 -149 -223 l-46 -44 -36 34 c-45 44 -89 106 -135 194 l-36 68 19 52 c29
75 63 196 90 319 19 89 24 103 30 80 4 -16 3 -65 -3 -111z m-1119 -102 l0 -90
85 0 85 0 0 -90 0 -90 -170 0 -170 0 0 90 0 90 -85 0 -85 0 0 90 0 90 170 0
170 0 0 -90z m3950 0 l0 -90 85 0 85 0 0 -90 0 -90 -85 0 -85 0 0 90 0 90 -85
0 -85 0 0 90 0 90 85 0 85 0 0 -90z m-1740 -180 l0 -90 -85 0 -85 0 0 90 0 90
85 0 85 0 0 -90z m890 -290 c0 -11 -7 -20 -15 -20 -10 0 -12 6 -8 18 6 15 5
15 -10 3 -15 -12 -17 -11 -17 3 0 10 9 16 25 16 18 0 25 -5 25 -20z"/>
<path d="M2622 5658 l3 -93 88 -3 87 -3 0 96 0 95 -90 0 -91 0 3 -92z"/>
<path d="M4622 5130 c-19 -34 -32 -114 -15 -97 3 4 6 20 5 37 0 18 4 29 11 27
7 -1 12 5 13 13 0 8 4 23 9 33 15 34 0 25 -23 -13z"/>
<path d="M4487 4942 c-15 -16 -24 -32 -20 -36 4 -4 1 -5 -7 -2 -21 7 -126 -89
-108 -100 7 -4 10 -3 5 1 -9 10 63 44 80 37 7 -2 11 -7 8 -11 -2 -4 2 -8 10
-8 8 0 12 4 9 9 -3 4 1 8 8 8 8 0 13 13 12 38 0 24 7 45 19 59 30 34 15 37
-16 5z"/>
<path d="M4499 4920 c-8 -6 -7 -9 2 -13 9 -4 10 -8 4 -14 -5 -4 -11 -15 -13
-23 -2 -16 21 10 38 41 10 17 -9 22 -31 9z"/>
<path d="M4426 4794 c-23 -23 -20 -30 4 -9 11 10 20 20 20 22 0 7 -9 2 -24
-13z"/>
<path d="M4203 4729 c-33 -21 -40 -29 -25 -29 8 1 70 50 62 50 -3 0 -20 -10
-37 -21z"/>
<path d="M4145 4690 c-3 -5 -1 -10 4 -10 6 0 11 5 11 10 0 6 -2 10 -4 10 -3 0
-8 -4 -11 -10z"/>
<path d="M4075 4657 c-22 -12 -75 -42 -117 -65 -43 -24 -78 -45 -78 -47 0 -6
46 8 73 22 4 2 7 -7 7 -21 0 -15 -7 -27 -17 -30 -10 -2 -4 -3 14 -1 40 4 55
13 47 27 -5 7 -1 9 9 5 19 -7 111 35 100 46 -4 5 -1 5 8 2 8 -3 26 3 39 15
l23 20 -26 0 c-26 0 -53 30 -40 44 11 10 0 6 -42 -17z"/>
<path d="M3794 4494 c-18 -14 -18 -15 4 -4 12 6 22 13 22 15 0 8 -5 6 -26 -11z"/>
<path d="M3731 4451 c-13 -10 -20 -21 -15 -24 11 -6 38 13 42 31 3 15 2 15
-27 -7z"/>
<path d="M3653 4383 c-4 -10 -11 -22 -17 -26 -7 -5 -4 -6 7 -3 10 3 23 6 28 6
5 0 9 5 9 11 0 5 -5 7 -12 3 -8 -5 -9 -2 -5 9 3 10 4 17 1 17 -2 0 -8 -8 -11
-17z"/>
<path d="M3720 4396 c0 -2 7 -7 16 -10 8 -3 12 -2 9 4 -6 10 -25 14 -25 6z"/>
<path d="M3445 4188 l-20 -21 23 12 c12 6 22 16 22 21 0 13 -2 12 -25 -12z"/>
<path d="M3055 4983 c-16 -2 -45 -6 -63 -9 l-33 -5 70 -55 c77 -60 149 -142
190 -216 14 -26 28 -48 31 -48 3 1 20 27 39 60 44 77 113 154 189 210 34 25
61 48 62 51 0 3 -37 9 -82 13 l-83 6 -37 -41 c-21 -22 -48 -63 -60 -90 -13
-26 -25 -48 -28 -49 -3 0 -16 22 -28 48 -29 61 -94 132 -118 131 -11 -1 -32
-4 -49 -6z"/>
<path d="M2758 4917 l-98 -30 95 -48 c133 -68 208 -121 301 -213 83 -84 126
-142 170 -228 l26 -50 23 51 c34 72 77 132 152 212 89 94 180 159 307 220 58
28 106 52 106 54 0 2 -45 18 -100 35 l-100 31 -62 -42 c-128 -87 -230 -202
-298 -339 l-32 -64 -18 45 c-39 103 -157 248 -264 323 -114 81 -98 78 -208 43z"/>
<path d="M1851 3368 c-28 -88 -53 -188 -49 -200 2 -6 21 12 43 41 22 28 42 51
46 51 5 0 24 -15 44 -33 l36 -33 -60 -80 c-33 -43 -79 -100 -101 -125 l-41
-46 3 -84 3 -84 24 40 c14 22 59 83 101 135 42 52 91 117 109 143 l33 48 31
-20 c23 -15 31 -27 29 -43 -5 -43 -69 -165 -151 -287 -94 -138 -141 -235 -141
-286 0 -19 12 -68 26 -108 38 -106 38 -107 21 -107 -23 0 -31 -19 -19 -43 20
-43 35 -106 30 -125 -6 -22 67 -139 83 -135 5 2 10 -2 10 -7 1 -6 2 -14 3 -19
0 -5 11 -21 24 -35 12 -15 22 -31 22 -36 0 -6 7 -10 16 -10 8 0 12 -4 9 -10
-3 -5 -1 -10 4 -10 6 0 11 -7 11 -15 0 -9 6 -12 17 -8 11 4 14 3 9 -5 -8 -13
6 -44 20 -43 5 1 9 -4 9 -10 0 -18 69 -80 83 -74 7 3 10 0 7 -6 -4 -5 4 -20
18 -33 24 -22 25 -22 38 -4 7 10 20 18 27 18 11 0 12 -3 3 -13 -6 -8 -8 -17
-4 -21 4 -4 1 -11 -6 -15 -9 -6 -10 -11 -2 -15 6 -4 11 -1 11 6 0 9 3 9 10 -2
8 -11 9 -7 4 15 -4 23 -3 26 5 15 6 -8 11 -10 11 -4 0 6 -14 29 -31 50 -103
129 -140 329 -95 502 l17 63 -25 20 c-16 13 -23 26 -20 37 5 14 4 15 -5 2 -10
-13 -12 -13 -21 0 -9 13 -10 13 -11 0 -1 -8 -1 -20 0 -26 1 -6 -6 -17 -14 -24
-10 -9 -15 -9 -15 -1 0 6 5 11 11 11 5 0 7 4 4 10 -8 13 36 120 108 265 75
151 115 266 130 372 6 46 14 83 17 83 12 0 40 -101 46 -166 13 -119 -10 -215
-133 -559 -71 -199 -67 -413 9 -557 l23 -43 6 110 c8 137 25 205 106 419 73
194 97 284 113 410 14 111 1 235 -36 347 -39 117 -51 132 -115 146 -157 33
-319 123 -432 242 -38 39 -70 71 -72 71 -2 0 -13 -28 -24 -62z m401 -384 c-7
-108 -36 -188 -152 -426 -83 -171 -115 -260 -131 -366 -10 -68 -10 -82 5 -109
19 -37 21 -52 4 -35 -16 16 -39 80 -45 125 -6 45 11 141 37 213 15 42 16 51 4
51 -8 0 -14 -6 -14 -14 0 -17 -20 -17 -21 0 0 10 -2 10 -6 0 -5 -15 -33 -18
-33 -4 0 5 5 11 11 13 7 2 7 11 0 28 -8 22 -10 22 -11 5 -1 -11 -4 -15 -6 -8
-8 20 67 170 143 285 76 114 111 182 138 265 l17 52 32 -13 c30 -12 31 -15 28
-62z m-185 -876 c-3 -7 -5 -2 -5 12 0 14 2 19 5 13 2 -7 2 -19 0 -25z m0 -60
c-3 -7 -5 -2 -5 12 0 14 2 19 5 13 2 -7 2 -19 0 -25z m-37 -71 c0 -5 -7 -2
-15 7 -8 8 -15 23 -15 33 1 14 4 13 15 -7 8 -14 14 -29 15 -33z m37 21 c-3 -8
-6 -5 -6 6 -1 11 2 17 5 13 3 -3 4 -12 1 -19z"/>
<path d="M1760 2424 c0 -8 -4 -12 -10 -9 -11 7 -2 -20 26 -74 15 -31 18 -32
28 -15 12 22 17 71 9 98 -4 15 -7 16 -14 5 -6 -10 -9 -11 -9 -1 0 6 -7 12 -15
12 -8 0 -15 -7 -15 -16z m34 -59 c3 -8 1 -15 -4 -15 -6 0 -10 7 -10 15 0 8 2
15 4 15 2 0 6 -7 10 -15z"/>
<path d="M1845 2150 c3 -5 8 -10 11 -10 2 0 4 5 4 10 0 6 -5 10 -11 10 -5 0
-7 -4 -4 -10z"/>
<path d="M2326 1825 c-9 -26 -7 -32 5 -12 6 10 9 21 6 23 -2 3 -7 -2 -11 -11z"/>
<path d="M4550 4368 c0 -9 5 -20 10 -23 13 -8 13 5 0 25 -8 13 -10 13 -10 -2z"/>
<path d="M4598 4345 c-3 -14 -1 -25 3 -25 5 0 11 -11 15 -25 3 -14 11 -25 16
-25 6 0 7 8 3 18 -4 9 -11 32 -17 50 -11 39 -14 40 -20 7z"/>
<path d="M4572 4294 c7 -15 14 -21 16 -15 5 16 -5 41 -17 41 -7 0 -6 -10 1
-26z"/>
<path d="M4581 3388 c-108 -133 -298 -244 -469 -273 -49 -8 -53 -12 -85 -92
-38 -95 -58 -196 -58 -302 0 -171 10 -209 155 -615 51 -142 79 -280 74 -363
-2 -29 -2 -53 -1 -53 9 0 48 95 64 157 39 155 20 298 -77 563 -70 193 -86 265
-85 380 0 92 19 192 40 213 13 13 15 -23 11 -159 -1 -50 3 -117 10 -150 18
-91 49 -192 62 -200 7 -5 8 -3 3 6 -5 8 -1 18 10 26 15 11 16 16 6 28 -10 12
-24 116 -16 116 2 0 39 -72 84 -160 106 -208 133 -299 135 -447 l1 -112 49 76
49 76 -7 67 c-9 100 -38 182 -138 394 -99 212 -123 276 -144 386 -13 69 -13
76 3 87 34 25 48 16 49 -32 2 -62 45 -195 55 -169 4 10 5 30 2 44 -8 34 -1 26
55 -66 27 -43 73 -118 104 -166 50 -78 92 -184 113 -283 l7 -30 14 35 c9 19
22 62 29 95 l14 60 -44 90 c-24 50 -74 135 -111 190 -69 102 -115 187 -139
256 -14 38 -14 39 15 54 39 20 45 19 61 -12 22 -45 22 -50 0 -18 -20 28 -21
29 -21 7 0 -22 65 -162 76 -162 3 0 2 6 -3 13 -9 15 -13 102 -4 90 4 -4 25
-30 47 -58 21 -27 52 -63 67 -80 15 -16 40 -49 54 -72 13 -24 28 -43 32 -43
13 0 13 138 0 161 -6 12 -43 59 -81 103 -39 44 -79 98 -89 118 l-19 38 32 30
c18 16 35 29 38 29 3 0 25 -25 49 -55 24 -30 46 -53 48 -50 8 8 -69 286 -80
286 -2 0 -23 -24 -46 -52z m-73 -363 c-3 -3 -9 2 -12 12 -6 14 -5 15 5 6 7 -7
10 -15 7 -18z m-154 -101 c3 -8 2 -12 -4 -9 -6 3 -10 10 -10 16 0 14 7 11 14
-7z"/>
<path d="M4240 2587 c0 -9 4 -18 9 -21 5 -4 8 1 7 9 -3 21 -16 31 -16 12z"/>
<path d="M4120 1544 c0 -8 5 -12 10 -9 6 4 8 11 5 16 -9 14 -15 11 -15 -7z"/>
<path d="M2449 4314 l-34 -36 32 18 c17 10 29 22 27 26 -3 5 6 8 20 8 14 0 28
5 31 10 3 6 -4 10 -17 10 -14 0 -38 -15 -59 -36z"/>
<path d="M2498 4283 c7 -3 16 -2 19 1 4 3 -2 6 -13 5 -11 0 -14 -3 -6 -6z"/>
<path d="M3920 4330 c0 -5 5 -10 11 -10 5 0 7 5 4 10 -3 6 -8 10 -11 10 -2 0
-4 -4 -4 -10z"/>
<path d="M3250 3523 c0 -117 2 -213 5 -213 6 0 25 45 71 168 l35 93 -38 60
c-77 123 -72 131 -73 -108z"/>
<path d="M3306 3015 c-3 -8 -1 -15 4 -15 6 0 10 7 10 15 0 8 -2 15 -4 15 -2 0
-6 -7 -10 -15z"/>
<path d="M3099 2831 c6 -10 8 -20 6 -23 -3 -3 1 -5 9 -5 12 0 12 4 -1 24 -18
28 -28 31 -14 4z"/>
<path d="M3136 2777 c3 -10 9 -15 12 -12 3 3 0 11 -7 18 -10 9 -11 8 -5 -6z"/>
<path d="M1020 2660 l0 -100 90 0 90 0 0 -95 c0 -83 2 -95 18 -96 9 -1 31 -3
47 -5 17 -1 47 0 68 3 l37 5 0 94 0 94 -85 0 -85 0 0 100 0 100 -90 0 -90 0 0
-100z"/>
<path d="M5130 2075 l0 -95 90 0 91 0 -3 93 -3 92 -87 3 -88 3 0 -96z"/>
<path d="M2782 1684 c10 -10 20 -15 24 -12 3 4 -5 12 -18 18 -22 12 -22 12 -6
-6z"/>
<path d="M2561 1712 c0 -7 -5 -11 -10 -7 -5 3 -12 1 -15 -4 -9 -13 45 -48 66
-43 16 3 16 5 4 18 -8 8 -19 14 -25 14 -5 0 -12 8 -14 18 -3 9 -5 11 -6 4z"/>
<path d="M5130 1335 l0 -95 90 0 91 0 -3 93 -3 92 -87 3 -88 3 0 -96z"/>
<path d="M2536 1305 c4 -8 8 -15 10 -15 2 0 4 7 4 15 0 8 -4 15 -10 15 -5 0
-7 -7 -4 -15z"/>
<path d="M3940 1314 c0 -14 4 -23 10 -19 6 3 10 15 10 26 0 10 -4 19 -10 19
-5 0 -10 -12 -10 -26z"/>
<path d="M3042 1369 c-19 -30 -11 -32 11 -3 10 13 14 24 10 24 -5 0 -14 -9
-21 -21z"/>
<path d="M3075 1370 c-3 -5 0 -10 7 -11 7 -1 2 -4 -12 -8 l-25 -7 32 -17 c20
-11 34 -13 38 -7 4 6 11 8 16 5 13 -9 11 5 -4 18 -32 31 -45 38 -52 27z"/>
<path d="M3373 1346 c-10 -11 -9 -16 5 -22 13 -5 3 -11 -36 -24 -47 -14 -52
-18 -37 -30 10 -8 19 -10 23 -4 4 5 24 18 45 28 30 15 35 22 23 28 -8 5 -13
15 -10 23 7 18 3 19 -13 1z"/>
<path d="M2630 1110 c-9 -16 -8 -20 5 -20 8 0 15 2 15 4 0 2 3 11 6 20 9 23
-13 20 -26 -4z"/>
<path d="M2546 1025 c7 -36 9 -39 23 -30 16 9 13 35 -3 35 -8 0 -17 6 -20 13
-3 6 -3 -1 0 -18z"/>
<path d="M5120 5845 l0 -635 620 0 620 0 0 635 0 635 -620 0 -620 0 0 -635z
m1060 0 l0 -455 -438 0 -439 0 -6 446 c-4 246 -4 451 -1 455 3 5 203 9 445 9
l439 0 0 -455z"/>
<path d="M5470 5845 l0 -275 265 0 265 0 0 275 0 275 -265 0 -265 0 0 -275z"/>
<path d="M6184 4097 c-2 -7 -3 -91 -2 -187 l3 -175 88 -3 87 -3 0 191 0 190
-85 0 c-61 0 -87 -4 -91 -13z"/>
<path d="M5943 3342 l-103 -3 0 -99 0 -100 85 0 85 0 0 -95 0 -96 88 3 87 3 3
93 3 92 84 0 85 0 0 103 0 102 -158 0 c-86 0 -203 -1 -259 -3z"/>
<path d="M140 785 l0 -645 620 0 620 0 0 645 0 645 -620 0 -620 0 0 -645z
m1060 0 l0 -465 -440 0 -440 0 0 465 0 465 440 0 440 0 0 -465z"/>
<path d="M490 785 l0 -285 270 0 270 0 0 285 0 285 -270 0 -270 0 0 -285z"/>
<path d="M2530 331 c0 -5 6 -14 14 -20 16 -13 32 2 21 19 -8 12 -35 13 -35 1z"/>
</g>
</svg>
